<svg enableBackground="new 0 0 145 145" viewBox="0 0 145 145" xmlns="http://www.w3.org/2000/svg" xmlns:xlink="http://www.w3.org/1999/xlink"><clipPath id="a"><path d="m81.2 56 .9.4c-.4-.2-.9-.3-1.4-.3l-.9-.4c.5 0 1 .1 1.4.3z"/></clipPath><clipPath id="b"><path d="m77 67.9-.9-.4c-1.3-.6-2.1-2.2-2.1-4.3 0-3.3 2.1-6.5 4.7-7.3.4-.1.8-.2 1.2-.2l.9.4c-.4 0-.8.1-1.2.2-2.6.8-4.7 4.1-4.7 7.3-.1 2.2.8 3.7 2.1 4.3z"/></clipPath><clipPath id="c"><path d="m81.9 99.9.9.3c-.3-.1-.6-.2-.9-.2l-.9-.3c.3.1.6.1.9.2z"/></clipPath><clipPath id="d"><path d="m79.8 102.5.9.3c.2.1.3.3.3.5 0 .4-.3.9-.6 1-.1 0-.1 0-.2 0l-.9-.3h.2c.4-.1.6-.6.6-1 0-.2-.1-.4-.3-.5z"/></clipPath><clipPath id="e"><path d="m80.1 104.4-.9-.3h.1l.9.3z"/></clipPath><clipPath id="f"><path d="m78.1 112.2-.9-.3c-1.4-.5-2.3-2-2.3-4.2 0-3.3 2.1-6.7 4.7-7.7.5-.2 1-.3 1.4-.3l.9.3c-.4 0-.9.1-1.4.3-2.6 1-4.7 4.4-4.7 7.7-.1 2.2.9 3.7 2.3 4.2z"/></clipPath><clipPath id="g"><path d="m80.2 87.8-.9-.3c.1-.3.2-.4.2-.5s-.1-.3-.2-.4l.9.3c.1.1.2.3.2.4s-.1.3-.2.5z"/></clipPath><clipPath id="h"><path d="m79.2 86.6.9.3s.1 0 .1.1l-.9-.3c0-.1 0-.1-.1-.1z"/></clipPath><clipPath id="i"><path d="m79.6 88.2-.9-.3h.2c.2-.1.4-.2.4-.4l.9.3c-.1.1-.3.3-.4.4-.1 0-.1 0-.2 0z"/></clipPath><clipPath id="j"><path d="m79.5 88.2-.9-.3h.1l.9.3z"/></clipPath><clipPath id="k"><path d="m79.5 78.4.9.3h-.1c-.3 0-.7.3-.9.7l-.9-.3c.2-.4.6-.7.9-.7z"/></clipPath><clipPath id="l"><path d="m75.4 90.1-.9-.3c-.3-.1-.5-.5-.3-1.1l.9.3c-.1.6 0 1 .3 1.1z"/></clipPath><circle cx="72.5" cy="72.5" fill="#647300" opacity=".4" r="63.2"/><path d="m116.3 103.2-43.8 13.1v-17.5l43.8-13.1z" fill="#859900"/><path d="m72.5 116.3-43.8-13.1v-17.5l43.8 13.1z" fill="#434d00"/><path d="m72.5 98.8-43.8-13.1 43.8-13.2 43.8 13.2z" fill="#647300"/><path d="m116.3 81.3-43.8 13.1v-17.6l43.8-13.1z" fill="#859900"/><path d="m72.5 94.4-43.8-13.1v-17.6l43.8 13.1z" fill="#434d00"/><path d="m72.5 76.8-43.8-13.1 43.8-13.1 43.8 13.1z" fill="#647300"/><path d="m116.3 59.3-43.8 13.2v-17.5l43.8-13.1z" fill="#859900"/><path d="m72.5 72.5-43.8-13.2v-17.5l43.8 13.2z" fill="#434d00"/><path d="m72.5 55-43.8-13.2 43.8-13.1 43.8 13.1z" fill="#647300"/><g enableBackground="new"><g fill="#4d0008"><path d="m80.9 64.9-.9-.4 1.2-1.9.9.4z"/><path d="m80.7 61.7-.9-.4 1.4-2.2.9.5z"/><path d="m82.1 63-.9-.4-1.4-1.3.9.4z"/><path d="m78.1 65.8-.8-.4 1.3-2.2.9.4z"/><path d="m82.1 59.6-.9-.5-1.2-1.1.9.4z"/></g><g clipPath="url(#a)" enableBackground="new"><path d="m80.7 56.2-.9-.4h.5l.9.4c-.2 0-.3 0-.5 0" fill="#590009"/><path d="m81.2 56.2-.9-.4c.2 0 .4.1.5.1l.9.4c-.1 0-.3-.1-.5-.1" fill="#5c0009"/><path d="m81.7 56.3-.9-.4c.1 0 .2.1.4.2l.9.4c-.1-.1-.2-.1-.4-.2" fill="#5f0009"/></g><path d="m79.5 60.6-.9-.5-1.3-1.3.8.5z" fill="#4d0008"/><path d="m80.7 56.2c2 0 3.5 1.8 3.5 4.6 0 3.3-2.1 6.5-4.7 7.3-.4.1-.8.2-1.2.2-2 0-3.5-1.8-3.5-4.6 0-3.3 2.1-6.5 4.7-7.3.4-.2.8-.2 1.2-.2zm1.4 6.8-1.4-1.3 1.4-2.2-1.2-1.1-1.4 2.2-1.4-1.3-1.2 1.9 1.4 1.3-1.4 2.2 1.2 1.1 1.4-2.2 1.4 1.3z" fill="#85000d"/><g clipPath="url(#b)" enableBackground="new"><path d="m77 67.9-.9-.4c-1.3-.6-2.1-2.2-2.1-4.3 0-3.2 2-6.3 4.5-7.3l.9.4c-2.5.9-4.4 4.1-4.5 7.3-.1 2.2.8 3.7 2.1 4.3" fill="#500008"/><path d="m79.3 56.4-.9-.4c.1 0 .1-.1.2-.1.2-.1.4-.1.6-.1l.9.4c-.2 0-.4.1-.6.1-.1.1-.1.1-.2.1" fill="#530008"/><path d="m80.1 56.2-.9-.4c.2 0 .4-.1.6-.1l.9.4c-.2.1-.4.1-.6.1" fill="#560008"/><path d="m80.7 56.2-.9-.4z" fill="#590009"/></g></g><g enableBackground="new"><path d="m81.5 108.6-.9-.3-.1-1 .9.3z" fill="#004680"/><path d="m80.9 107.7-.9-.3.1-2.1.8.3z" fill="#004680"/><path d="m79.4 109.4-.9-.3 2.1-.8.9.3z" fill="#004985"/><path d="m80.9 105.6-.8-.3v-1.1l.8.3z" fill="#004680"/><g clipPath="url(#c)" enableBackground="new"><path d="m81.8 100.1-.9-.3h.5l.9.3c-.1 0-.3 0-.5 0" fill="#005194"/><path d="m82.3 100.1-.9-.3c.2 0 .3.1.4.1l.9.3c-.1 0-.2-.1-.4-.1" fill="#005499"/></g><g clipPath="url(#d)" enableBackground="new"><path d="m80.2 104.4-.9-.3z" fill="#005194"/><path d="m80.2 104.4-.9-.3h.1l.8.3c.1 0 .1 0 0 0" fill="#004e8f"/><path d="m80.3 104.4-.9-.3h.1l.9.3z" fill="#004c8a"/><path d="m80.4 104.3-.9-.3c.4-.1.6-.6.6-1 0-.3-.1-.5-.3-.5l.9.3c.2.1.3.3.3.5 0 .5-.2.9-.6 1z" fill="#004985"/></g><g clipPath="url(#e)" enableBackground="new"><path d="m80.1 104.4-.9-.3h.1z" fill="#005499"/><path d="m80.2 104.4-.9-.3h.1z" fill="#005194"/></g><path d="m79.4 106.2-.9-.3.4-.2.9.3z" fill="#004985"/><g clipPath="url(#f)" enableBackground="new"><path d="m78.1 112.2-.9-.3c-1.4-.5-2.3-2-2.3-4.2 0-3.3 2.1-6.7 4.7-7.7l.9.3c-2.6 1-4.7 4.4-4.7 7.7-.1 2.2.9 3.7 2.3 4.2" fill="#004985"/><path d="m80.4 100.3-.9-.3c.3-.1.5-.2.8-.2l.9.3c-.2.1-.5.1-.8.2z" fill="#004c8a"/><path d="m81.2 100.1-.9-.3c.2 0 .4-.1.6-.1l.9.3c-.2.1-.4.1-.6.1" fill="#004e8f"/><path d="m81.8 100.1-.9-.3z" fill="#005194"/></g><path d="m81.8 100.1c1.9 0 3.3 1.7 3.3 4.3 0 3.3-2.1 6.7-4.7 7.7-.5.2-1 .3-1.4.3-1.9 0-3.3-1.7-3.3-4.3 0-3.3 2.1-6.7 4.7-7.7.5-.3 1-.3 1.4-.3zm-2.4 9.3 2.1-.8-.1-1.1-.4.2v-2.2-1.1l-1.6.6v1.1l.4-.2v2.2l-.4.2zm1-6.6c-.3.1-.5.5-.6 1 0 .3.2.6.4.6h.2c.4-.1.6-.6.6-1 0-.3-.2-.6-.4-.6 0 0-.1 0-.2 0" fill="#007bdf"/></g><g enableBackground="new"><g clipPath="url(#g)" enableBackground="new"><path d="m80.2 87.8-.9-.3c.1-.3.2-.4.2-.5s-.1-.3-.2-.4l.9.3c.1.1.2.3.2.4s-.1.3-.2.5" fill="#858500"/></g><g clipPath="url(#h)" enableBackground="new"><path d="m80.3 86.9-.9-.3s-.1 0-.1-.1l.9.3c0 .1 0 .1.1.1" fill="#858500"/></g><g clipPath="url(#i)" enableBackground="new"><path d="m79.6 88.2-.9-.3z" fill="#949400"/><path d="m79.6 88.2-.9-.3h.1l.8.3c.1 0 .1 0 0 0" fill="#8f8f00"/><path d="m79.7 88.2-.9-.3h.1l.8.3c.1 0 .1 0 0 0z" fill="#8a8a00"/><path d="m79.8 88.2-.9-.3c.2-.1.3-.2.4-.4l.9.3c-.1.1-.2.3-.4.4" fill="#858500"/></g><g clipPath="url(#j)" enableBackground="new"><path d="m79.5 88.2-.9-.3h.1z" fill="#990"/><path d="m79.5 88.2-.9-.3h.1l.8.3c.1 0 .1 0 0 0" fill="#949400"/></g><path d="m79.4 86.7-.9-.3.9-.3.9.3z" fill="#868600"/><path d="m80.3 86.4-.9-.3.2-4.4.9.3z" fill="#808000"/><g clipPath="url(#k)" enableBackground="new"><path d="m79.4 79.4-.9-.3c.1-.3.4-.6.7-.7l.9.3c-.3.1-.6.4-.7.7" fill="#858500"/><path d="m80 78.7-.9-.3h.1l.9.3s0 0-.1 0" fill="#8a8a00"/><path d="m80.2 78.7-.9-.3h.1z" fill="#8f8f00"/><path d="m80.3 78.7-.9-.3h.1z" fill="#949400"/><path d="m80.4 78.7-.9-.3h.1z" fill="#990"/></g><path d="m75.2 89.1-.9-.3 4.2-9.7.9.3z" fill="#808000"/><g clipPath="url(#l)" enableBackground="new"><path d="m75.4 90.1-.9-.3c-.3-.1-.5-.5-.3-1.1l.9.3c-.1.6 0 1 .3 1.1" fill="#858500"/></g><path d="m84.4 85.9c.3.4 0 1.2-.6 1.4l-7.9 2.8c-.1 0-.2 0-.2 0-.4 0-.7-.5-.4-1.1l4.2-9.6c.2-.4.6-.7.9-.7.2 0 .3.1.4.3zm-4.1.5.2-4.4-1.1.4v4.3zm-.1 1.4c.1-.3.2-.4.2-.5s-.1-.3-.2-.4c-.1 0-.2-.1-.3-.1s-.1 0-.2 0c-.2.1-.4.2-.4.4-.1.1-.2.3-.2.5 0 .1.1.3.2.4s.2.1.3.1h.2c.2-.1.3-.3.4-.4" fill="#dfdf00"/></g><g enableBackground="new" opacity=".6"><path d="m102.2 78.3v4.2l-15.1 4.8.1-4.2z" fill="#748500"/><path d="m87.1 87.3-.5-.3v-4.2l.6.3z" fill="#434d00"/><path d="m87.2 83.1-.6-.3 15-4.8.6.3z" fill="#465100"/></g><g enableBackground="new" opacity=".6"><path d="m112.5 69.2v4.2l-25.3 8v-4.2z" fill="#748500"/><path d="m87.2 81.4-.6-.3v-4.2l.6.3z" fill="#434d00"/><path d="m87.2 77.2-.6-.3 25.3-8 .6.3z" fill="#465100"/></g><g enableBackground="new" opacity=".6"><path d="m102.2 57.2v4.2l-15.1 4.7.1-4.2z" fill="#748500"/><path d="m87.1 66.1-.5-.3v-4.2l.6.3z" fill="#434d00"/><path d="m87.2 61.9-.6-.3 15-4.7.6.3z" fill="#465100"/></g><g enableBackground="new" opacity=".6"><path d="m112.5 48.1v4.2l-25.3 7.9v-4.2z" fill="#748500"/><path d="m87.2 60.2-.6-.3v-4.2l.6.3z" fill="#434d00"/><path d="m87.2 56-.6-.3 25.3-7.9.6.3z" fill="#465100"/></g><g enableBackground="new" opacity=".6"><path d="m102.2 100v4.2l-15.1 4.8.1-4.2z" fill="#748500"/><path d="m87.1 109-.5-.3v-4.2l.6.3z" fill="#434d00"/><path d="m87.2 104.8-.6-.3 15-4.8.6.3z" fill="#465100"/></g><g enableBackground="new" opacity=".6"><path d="m112.5 90.9v4.2l-25.3 8v-4.2z" fill="#748500"/><path d="m87.2 103.1-.6-.3v-4.2l.6.3z" fill="#434d00"/><path d="m87.2 98.9-.6-.3 25.3-8 .6.3z" fill="#465100"/></g></svg>
