<svg xmlns="http://www.w3.org/2000/svg" viewBox="0 0 144 144"><circle fill="#1783E5" cx="72" cy="72" r="64"/><path fill="#E6E6E6" d="M104.7 116.3H56.3V32.5h48.4c3.6 0 6.4 2.8 6.4 6.4v70.8c0 3.6-3 6.6-6.4 6.6z"/><path fill="#B3B3B3" d="M58.9 40.5h47.3v5.3H58.9zM58.9 46.8H87v5.3H58.9zM58.9 59.7h47.3V65H58.9zM58.9 66H87v5.3H58.9zM58.9 78.1h47.3v5.3H58.9zM58.9 84.5H87v5.3H58.9zM58.9 97.2h47.3v5.3H58.9zM58.9 103.5H87v5.3H58.9z"/><path fill="#FFF" d="M61.6 111.9H42.1c-3.6 0-6.4-2.8-6.4-6.4V34.7c0-3.6 2.8-6.4 6.4-6.4h19.6v83.6h-.1z"/><path fill="#F05228" d="M48.9 34.7c-4 0-7.2 3.2-7.2 7.2s3.2 7.2 7.2 7.2 7.2-3.2 7.2-7.2c0-4.2-3.2-7.2-7.2-7.2zm4 9.2L51 45.8l-2.1-2.1-2.1 2.1-1.9-1.9 2.1-2.1-2.1-2.1 1.9-1.9 2.1 2.1 2.1-2.1 1.9 1.9-2.1 2.1 2.1 2.1z"/><path fill="#1783E5" d="M48.9 72.5c-4 0-7.2 3.2-7.2 7.2s3.2 7.2 7.2 7.2 7.2-3.2 7.2-7.2-3.2-7.2-7.2-7.2zm0 3.1c.5 0 .9.4.9.9s-.4.9-.9.9-.9-.3-.9-.9c.1-.5.5-.9.9-.9zm1.6 7.6h-3.2v-1.3h.7v-2.7h-.7v-1.3h2.4v4h.7l.1 1.3zM48.9 91.5c-4 0-7.2 3.2-7.2 7.2s3.2 7.2 7.2 7.2 7.2-3.2 7.2-7.2-3.2-7.2-7.2-7.2zm0 3c.5 0 .9.4.9.9s-.4.9-.9.9-.9-.3-.9-.8c.1-.6.5-1 .9-1zm1.6 7.8h-3.2V101h.7v-2.7h-.7V97h2.4v4h.7l.1 1.3z"/><path fill="#FAC917" d="M55.1 65.2l-6-10.3c-.4-.8-1.6-.7-2 0l-6 10.1c-.4.8.3 1.6 1.1 1.6h12c.9.1 1.4-.7.9-1.4zm-6.2-6.5l-.1 5.3h-1.3l-.1-5.3h1.5zm-.1 7c-.1.1-.4.3-.7.3s-.5-.1-.7-.3c-.1-.1-.3-.4-.3-.5 0-.3.1-.4.3-.5.1-.1.4-.3.7-.3s.5.1.7.3c.1.1.3.4.3.5s-.2.3-.3.5z"/><path fill="#666" d="M56.3 116.3v-4.4h5.3z"/></svg>